{"title":"Robotropolis.2011.DVDRip.XviD.RoSub-Psycho","uid":6737102,"size":725766837,"categoryP":"video","categoryS":"movies","magnet":"?xt=urn:btih:1ba833f4b89e0cd3a7cc60ab0b5db015ecc11e2b&amp;dn=Robotropolis.2011.DVDRip.XviD.RoSub-Psycho&amp;tr=udp%3A%2F%2Ftracker.openbittorrent.com%3A80&amp;tr=udp%3A%2F%2Fopen.demonii.com%3A1337&amp;tr=udp%3A%2F%2Ftracker.coppersurfer.tk%3A6969&amp;tr=udp%3A%2F%2Fexodus.desync.com%3A6969","seeders":0,"leechers":0,"uploader":"Francisco1206","files":-1,"time":1318368369,"description":"A group of reporters are covering the unveiling of a new facility that is completely maintained by robot prototypes. When one of the robots goes haywire, the reporters find themselves not just reporting on the malfunction, but fighting for their lives.\n\nIMDB rating: 3.4/10 (from 209 users)\n\nCAST:\n\nZoe Naylor..............Christiane Nouveau\nGraham Sibley...........Danny Ross\nEdward Foy..............Jason Brooks\nLani John Tupu..........Gordon Standish (as Lani Tupu)\nJourdan Lee.............Harlan (as Jourdan Lee Khoo)\nKarina Sindicich........Lisa\nPeer Metze..............Luther Kobler\nTonya Cornelisse........Sky Bennett\nBjorn Turmann...........Tobin\nRemesh Panicker.........Dr. Roshan Manik \n\nGeneral\n*******\nFormat                           : Matroska\nFile size                        : 692 MiB\nDuration                         : 1h 20mn\nOverall bit rate                 : 1 197 Kbps\nEncoded date                     : UTC 2011-10-11 19:08:12\nWriting application              : mkvmerge v5.0.0 ('Die Wahre Liebe') built on Sep 25 2011 20:33:49\nWriting library                  : libebml v1.2.2 + libmatroska v1.3.0\n\nVideo\n*****\nID                               : 1\nFormat                           : MPEG-4 Visual\nFormat profile                   : Advanced Simple@L5\nFormat settings, BVOP            : Yes\nFormat settings, QPel            : No\nFormat settings, GMC             : No warppoints\nFormat settings, Matrix          : Default (H.263)\nCodec ID                         : XVID\nCodec ID/Hint                    : XviD\nDuration                         : 1h 20mn\nBit rate                         : 1 045 Kbps\nWidth                            : 624 pixels\nHeight                           : 352 pixels\nDisplay aspect ratio             : 16:9\nFrame rate                       : 23.976 fps\nResolution                       : 8 bits\nColorimetry                      : 4:2:0\nScan type                        : Progressive\nBits/(Pixel*Frame)               : 0.198\nStream size                      : 604 MiB (87%)\nWriting library                  : XviD 1.2.1 (UTC 2008-12-04)\n\nAudio\n*****\nID                               : 2\nFormat                           : MPEG Audio\nFormat version                   : Version 1\nFormat profile                   : Layer 3\nFormat_Settings_Mode             : Joint stereo\nCodec ID                         : A_MPEG/L3\nCodec ID/Hint                    : MP3\nDuration                         : 1h 20mn\nBit rate mode                    : Constant\nBit rate                         : 128 Kbps\nChannel(s)                       : 2 channels\nSampling rate                    : 48.0 KHz\nStream size                      : 74.0 MiB (11%)\nWriting library                  : LAME3.98.4\n\nText(subtitles)\n***************\nID                               : 3\nFormat                           : UTF-8\nCodec ID                         : S_TEXT/UTF8\nCodec ID/Info                    : UTF-8 Plain Text\nLanguage                         : Romanian\nLanguage                         : Spanish\n\nPLEASE SEED FOR AS LONG AS POSSIBLE!","torrent":{"xt":"urn:btih:1ba833f4b89e0cd3a7cc60ab0b5db015ecc11e2b","amp;dn":"Robotropolis.2011.DVDRip.XviD.RoSub-Psycho","amp;tr":["udp%3A%2F%2Ftracker.openbittorrent.com%3A80","udp%3A%2F%2Fopen.demonii.com%3A1337","udp%3A%2F%2Ftracker.coppersurfer.tk%3A6969","udp%3A%2F%2Fexodus.desync.com%3A6969"],"infoHash":"1ba833f4b89e0cd3a7cc60ab0b5db015ecc11e2b","infoHashBuffer":{"type":"Buffer","data":[27,168,51,244,184,158,12,211,167,204,96,171,11,93,176,21,236,193,30,43]},"announce":[],"urlList":[]}}